<svg width="24" height="24" viewBox="0 0 24 24" fill="none" xmlns="http://www.w3.org/2000/svg">
<path d="M11.9912 20.751C16.9746 20.751 21.0879 16.6377 21.0879 11.6543C21.0879 7.29492 17.9326 3.60352 13.8105 2.75098V1.45898C13.8105 0.791016 13.3096 0.597656 12.7646 0.993164L9.79395 3.09375C9.3457 3.41895 9.3457 3.91113 9.79395 4.22754L12.7559 6.33691C13.3008 6.73242 13.8105 6.55664 13.8105 5.87109V4.60547C16.957 5.40527 19.2598 8.24414 19.2598 11.6543C19.2598 15.6885 16.0254 18.9316 11.9912 18.9316C7.95703 18.9316 4.71387 15.6885 4.72266 11.6543C4.73145 9.30762 5.83008 7.25977 7.55273 5.93262C7.96582 5.57227 8.09766 5.05371 7.78125 4.62305C7.49121 4.20996 6.91992 4.13965 6.44531 4.52637C4.30957 6.12598 2.90332 8.81543 2.90332 11.6543C2.90332 16.6377 7.0166 20.751 11.9912 20.751ZM14.874 15.4072C16.3066 15.4072 17.2998 14.0361 17.2998 11.8828C17.2998 9.70312 16.3066 8.33203 14.874 8.33203C13.4326 8.33203 12.457 9.65039 12.457 11.8828C12.457 14.0889 13.4414 15.4072 14.874 15.4072ZM9.2666 15.4072C10.6816 15.4072 11.666 14.5723 11.666 13.3594C11.666 12.542 11.1387 11.8564 10.3652 11.707C10.998 11.5225 11.4551 10.8721 11.4551 10.1602C11.4551 9.07031 10.585 8.33203 9.31055 8.33203C8.22949 8.33203 7.35938 8.94727 7.16602 9.73828C7.13086 9.86133 7.12207 9.9668 7.12207 10.0811C7.12207 10.4238 7.33301 10.6699 7.66699 10.6699C7.93066 10.6699 8.10645 10.5381 8.22949 10.2568C8.42285 9.73828 8.75684 9.47461 9.28418 9.47461C9.83789 9.47461 10.2158 9.81738 10.2158 10.3184C10.2158 10.8281 9.84668 11.2148 9.27539 11.2148H8.96777C8.625 11.2148 8.39648 11.4434 8.39648 11.7773C8.39648 12.1201 8.625 12.3486 8.96777 12.3486H9.31055C9.97852 12.3486 10.3916 12.7266 10.3916 13.2979C10.3916 13.834 9.92578 14.2471 9.27539 14.2471C8.72168 14.2471 8.31738 13.9658 8.12402 13.4736C7.99219 13.1836 7.8252 13.0518 7.55273 13.0518C7.25391 13.0518 6.99902 13.2891 6.99902 13.6406C6.99902 13.7549 7.00781 13.8604 7.04297 13.9746C7.24512 14.7744 8.18555 15.4072 9.2666 15.4072ZM14.8828 14.2119C14.1797 14.2119 13.749 13.3506 13.749 11.8828C13.749 10.3887 14.1797 9.52734 14.8828 9.52734C15.5859 9.52734 16.0078 10.3799 16.0078 11.8828C16.0078 13.3506 15.5771 14.2119 14.8828 14.2119Z" fill="#FFFFFF"/>
</svg>
