<svg width="24" height="24" viewBox="0 0 24 24" fill="none" xmlns="http://www.w3.org/2000/svg">
<path d="M4.69629 11.9092C4.30078 12.0674 4.03711 12.4102 4.03711 12.8145C4.03711 13.4736 4.52051 13.9395 5.11816 13.9395C5.44336 13.9395 5.85645 13.7549 6.16406 13.623L12 11.2588L17.8359 13.623C18.1436 13.7549 18.5654 13.9395 18.8818 13.9395C19.4795 13.9395 19.9629 13.4736 19.9629 12.8145C19.9629 12.4102 19.6992 12.0674 19.3037 11.9092L13.3799 9.49219C12.9141 9.29883 12.4482 9.10547 12 9.10547C11.5518 9.10547 11.0947 9.29883 10.6201 9.49219L4.69629 11.9092Z" fill="#FFFFFF"/>
</svg>
